<svg width="141" height="128" viewBox="0 0 141 128" fill="none" xmlns="http://www.w3.org/2000/svg">
<rect width="141" height="128" fill="#62AAEC"/>
<path fill-rule="evenodd" clip-rule="evenodd" d="M56.8586 31.8688C55.3705 33.7285 55.8971 36.3788 58.0347 37.7885L62.5384 40.7584C61.2856 41.5411 60.1555 42.5274 59.2108 43.7081C54.7857 49.2382 56.0862 56.9585 62.0949 61.0405L62.094 61.0415L77.5762 71.2509C79.7138 72.6606 82.653 72.2957 84.1411 70.436C85.6292 68.5763 85.1027 65.926 82.965 64.5164L78.1387 61.3338C79.3916 60.551 80.5216 59.5647 81.4664 58.3841C85.8128 52.9522 84.6354 45.4073 78.8982 41.2727L78.9057 41.2633L63.4235 31.0539C61.2859 29.6443 58.3467 30.0091 56.8586 31.8688ZM67.4829 54.307C69.6205 55.7166 72.5597 55.3518 74.0478 53.4921C75.5359 51.6324 75.0094 48.9821 72.8717 47.5725C70.7341 46.1628 67.7949 46.5277 66.3068 48.3874C64.8187 50.2471 65.3452 52.8974 67.4829 54.307Z" fill="white"/>
<path d="M36.3826 94.8315C35.8511 94.8315 35.3697 94.7728 34.9387 94.6552C34.5221 94.5377 34.1485 94.4007 33.8181 94.244V91.7372C34.0767 91.933 34.3712 92.1093 34.7017 92.2659C35.0465 92.4096 35.4488 92.4814 35.9085 92.4814C36.6844 92.4814 37.2878 92.2594 37.7188 91.8155C38.1498 91.3585 38.3654 90.6796 38.3654 89.7787C38.3654 89.152 38.2648 88.6493 38.0636 88.2707C37.8769 87.8921 37.6039 87.6114 37.2447 87.4286C36.8999 87.2458 36.4832 87.1544 35.9947 87.1544C35.6786 87.1544 35.3913 87.1936 35.1327 87.2719C34.8741 87.3372 34.6514 87.4155 34.4646 87.5069V93.4998H31.2319V87.0956C31.2319 86.7692 31.3038 86.5016 31.4474 86.2927C31.6055 86.0707 31.8282 85.8749 32.1155 85.7051C32.5609 85.4571 33.1141 85.2547 33.775 85.098C34.4502 84.9283 35.1902 84.8434 35.9947 84.8434C37.1154 84.8434 38.0996 85.0132 38.9472 85.3526C39.8093 85.6921 40.4774 86.2274 40.9515 86.9586C41.44 87.6897 41.6842 88.6298 41.6842 89.7787C41.6842 90.8754 41.4543 91.8024 40.9946 92.5597C40.5348 93.3039 39.9027 93.8719 39.0981 94.2636C38.3079 94.6422 37.4027 94.8315 36.3826 94.8315ZM33.0207 98.2C32.4029 98.2 31.9503 98.0956 31.663 97.8867C31.3756 97.6908 31.2319 97.3318 31.2319 96.8095V92.736L34.4862 92.7556V98.0238C34.3425 98.0629 34.1341 98.1021 33.8612 98.1413C33.6026 98.1805 33.3224 98.2 33.0207 98.2ZM43.5624 82.4345C43.5624 81.9776 43.7348 81.5989 44.0796 81.2986C44.4244 80.9853 44.8554 80.8286 45.3727 80.8286C45.9186 80.8286 46.3568 80.9853 46.6873 81.2986C47.0177 81.5989 47.183 81.9776 47.183 82.4345C47.183 82.8654 47.0177 83.2375 46.6873 83.5509C46.3568 83.8642 45.9186 84.0209 45.3727 84.0209C44.8554 84.0209 44.4244 83.8642 44.0796 83.5509C43.7348 83.2375 43.5624 82.8654 43.5624 82.4345ZM43.7563 89.3674H47.0105V94.5182C46.8669 94.5573 46.6657 94.59 46.4071 94.6161C46.1485 94.6552 45.8612 94.6748 45.5451 94.6748C44.9273 94.6748 44.4747 94.5769 44.1874 94.3811C43.9 94.1852 43.7563 93.8262 43.7563 93.3039V89.3674ZM47.0105 90.895H43.7563V85.2351C43.9 85.196 44.1011 85.1633 44.3598 85.1372C44.6327 85.098 44.9201 85.0784 45.2218 85.0784C45.854 85.0784 46.3065 85.1764 46.5795 85.3722C46.8669 85.555 47.0105 85.914 47.0105 86.4494V90.895ZM51.0931 91.2084L50.9638 89.2304L56.2654 88.4666C56.2367 88.114 56.0643 87.7876 55.7482 87.4873C55.4465 87.174 54.9867 87.0173 54.3689 87.0173C53.7224 87.0173 53.1836 87.2132 52.7526 87.6048C52.3359 87.9965 52.1204 88.5514 52.106 89.2695L52.2138 90.66C52.3431 91.352 52.6736 91.8481 53.2051 92.1484C53.7511 92.4487 54.3976 92.5989 55.1447 92.5989C55.7482 92.5989 56.3157 92.5271 56.8473 92.3835C57.3789 92.2268 57.8027 92.0636 58.1188 91.8938C58.3343 92.0113 58.5139 92.1746 58.6576 92.3835C58.8013 92.5924 58.8731 92.8208 58.8731 93.0689C58.8731 93.4606 58.7007 93.787 58.3559 94.0481C58.0254 94.3093 57.5585 94.5051 56.955 94.6357C56.366 94.7662 55.6835 94.8315 54.9077 94.8315C53.8014 94.8315 52.8029 94.6422 51.9121 94.2636C51.0357 93.8849 50.346 93.317 49.8432 92.5597C49.3403 91.8024 49.0889 90.8493 49.0889 89.7004C49.0889 88.8648 49.2326 88.1402 49.5199 87.5265C49.8216 86.9129 50.2167 86.4102 50.7052 86.0185C51.2081 85.6138 51.7684 85.32 52.3862 85.1372C53.0184 84.9414 53.6793 84.8434 54.3689 84.8434C55.3459 84.8434 56.2079 85.0197 56.955 85.3722C57.7021 85.7247 58.284 86.2143 58.7007 86.841C59.1173 87.4547 59.3257 88.1597 59.3257 88.9562C59.3257 89.374 59.2035 89.6873 58.9593 89.8962C58.715 90.1051 58.3702 90.2357 57.9248 90.2879L51.0931 91.2084ZM61.3077 89.3674H64.5188V91.4434C64.5188 91.809 64.6481 92.0766 64.9067 92.2464C65.1654 92.403 65.5245 92.4814 65.9843 92.4814C66.1998 92.4814 66.4297 92.4618 66.6739 92.4226C66.9182 92.3835 67.1337 92.3312 67.3205 92.2659C67.4354 92.3835 67.536 92.5271 67.6222 92.6968C67.7084 92.8665 67.7515 93.0624 67.7515 93.2843C67.7515 93.7283 67.5503 94.1004 67.1481 94.4007C66.7601 94.6879 66.0849 94.8315 65.1223 94.8315C63.9154 94.8315 62.9743 94.5834 62.2991 94.0873C61.6382 93.5781 61.3077 92.7621 61.3077 91.6392V89.3674ZM63.3551 87.6048V85.333H67.4929C67.5647 85.4505 67.6366 85.6072 67.7084 85.8031C67.7802 85.9989 67.8161 86.2143 67.8161 86.4494C67.8161 86.8541 67.7156 87.1479 67.5144 87.3307C67.3133 87.5134 67.0475 87.6048 66.717 87.6048H63.3551ZM64.5188 89.8571H61.3077V82.8262C61.437 82.7871 61.631 82.7479 61.8896 82.7087C62.1626 82.6565 62.4499 82.6304 62.7516 82.6304C63.3694 82.6304 63.8148 82.7348 64.0878 82.9437C64.3752 83.1396 64.5188 83.4986 64.5188 84.0209V89.8571ZM79.1433 88.0553V90.2683H75.8891V88.4274C75.8891 87.9835 75.7455 87.6636 75.4581 87.4677C75.1851 87.2588 74.8331 87.1544 74.4021 87.1544C74.086 87.1544 73.8059 87.2001 73.5616 87.2915C73.3174 87.3698 73.1162 87.4547 72.9582 87.5461V90.2683H69.704V87.2327C69.704 86.9063 69.783 86.6387 69.941 86.4298C70.0991 86.2078 70.3218 86.0054 70.6091 85.8227C71.0689 85.5354 71.6436 85.3004 72.3332 85.1176C73.0372 84.9348 73.7699 84.8434 74.5314 84.8434C75.221 84.8434 75.8676 84.9414 76.471 85.1372C77.0744 85.32 77.5988 85.6138 78.0442 86.0185C78.1592 86.1099 78.2669 86.2013 78.3675 86.2927C78.4824 86.371 78.5686 86.4624 78.6261 86.5669C78.7698 86.7758 78.8919 87.0108 78.9925 87.2719C79.0931 87.52 79.1433 87.7811 79.1433 88.0553ZM85.3501 88.3491V90.2683H82.0958V88.4274C82.0958 87.9835 81.9594 87.6636 81.6864 87.4677C81.4278 87.2588 81.0758 87.1544 80.6304 87.1544C80.3143 87.1544 80.0054 87.2132 79.7037 87.3307C79.4163 87.4482 79.1721 87.5918 78.9709 87.7615L77.2469 86.0577C77.721 85.7313 78.2598 85.4505 78.8632 85.2155C79.481 84.9675 80.2281 84.8434 81.1045 84.8434C81.8516 84.8434 82.5484 84.9609 83.195 85.196C83.8415 85.4179 84.3587 85.79 84.7466 86.3123C85.1489 86.8215 85.3501 87.5004 85.3501 88.3491ZM69.704 89.387H72.9582V94.5182C72.8145 94.5573 72.6062 94.59 72.3332 94.6161C72.0746 94.6552 71.7944 94.6748 71.4927 94.6748C70.8749 94.6748 70.4223 94.5769 70.135 94.3811C69.8476 94.1852 69.704 93.8262 69.704 93.3039V89.387ZM75.8891 89.387H79.1433V94.5182C78.9997 94.5573 78.7985 94.59 78.5399 94.6161C78.2813 94.6552 77.994 94.6748 77.6779 94.6748C77.0601 94.6748 76.6075 94.5769 76.3202 94.3811C76.0328 94.1852 75.8891 93.8262 75.8891 93.3039V89.387ZM82.0958 89.387H85.3501V94.5182C85.2064 94.5573 84.9981 94.59 84.7251 94.6161C84.4665 94.6552 84.1863 94.6748 83.8846 94.6748C83.2668 94.6748 82.8142 94.5769 82.5269 94.3811C82.2395 94.1852 82.0958 93.8262 82.0958 93.3039V89.387ZM92.0923 94.8511C90.6124 94.8511 89.4343 94.59 88.5579 94.0677C87.6815 93.5455 87.2433 92.7686 87.2433 91.7372C87.2433 90.8493 87.545 90.1704 88.1484 89.7004C88.7518 89.2173 89.6498 88.917 90.8423 88.7995L93.7302 88.5253V88.3099C93.7302 87.866 93.5362 87.5461 93.1483 87.3502C92.7747 87.1544 92.2359 87.0565 91.5319 87.0565C90.986 87.0565 90.4472 87.1152 89.9156 87.2327C89.3984 87.3502 88.9314 87.4939 88.5148 87.6636C88.3424 87.5461 88.1915 87.3829 88.0622 87.174C87.9473 86.952 87.8898 86.7235 87.8898 86.4885C87.8898 85.9271 88.2203 85.5224 88.8812 85.2743C89.2978 85.1307 89.7791 85.0262 90.3251 84.9609C90.8854 84.8826 91.4242 84.8434 91.9414 84.8434C93.4356 84.8434 94.6281 85.1241 95.5189 85.6856C96.424 86.247 96.8766 87.1283 96.8766 88.3295V92.7751C96.8766 93.1015 96.7832 93.3692 96.5965 93.5781C96.4097 93.7739 96.1726 93.9437 95.8853 94.0873C95.4542 94.3223 94.9155 94.5051 94.2689 94.6357C93.6368 94.7793 92.9112 94.8511 92.0923 94.8511ZM92.0923 92.6576C92.4084 92.6576 92.7244 92.6315 93.0405 92.5793C93.3566 92.514 93.5937 92.4357 93.7517 92.3443V90.5033L91.9414 90.66C91.4673 90.6861 91.0866 90.7775 90.7992 90.9342C90.5262 91.0909 90.3897 91.3259 90.3897 91.6392C90.3897 91.9395 90.519 92.1876 90.7777 92.3835C91.0506 92.5662 91.4888 92.6576 92.0923 92.6576ZM104.466 94.8315C103.935 94.8315 103.454 94.7728 103.023 94.6552C102.606 94.5377 102.232 94.4007 101.902 94.244V91.7372C102.161 91.933 102.455 92.1093 102.786 92.2659C103.13 92.4096 103.533 92.4814 103.992 92.4814C104.768 92.4814 105.372 92.2594 105.803 91.8155C106.234 91.3585 106.449 90.6796 106.449 89.7787C106.449 89.152 106.349 88.6493 106.147 88.2707C105.961 87.8921 105.688 87.6114 105.329 87.4286C104.984 87.2458 104.567 87.1544 104.079 87.1544C103.762 87.1544 103.475 87.1936 103.217 87.2719C102.958 87.3372 102.735 87.4155 102.548 87.5069V93.4998H99.3158V87.0956C99.3158 86.7692 99.3876 86.5016 99.5313 86.2927C99.6893 86.0707 99.912 85.8749 100.199 85.7051C100.645 85.4571 101.198 85.2547 101.859 85.098C102.534 84.9283 103.274 84.8434 104.079 84.8434C105.199 84.8434 106.183 85.0132 107.031 85.3526C107.893 85.6921 108.561 86.2274 109.035 86.9586C109.524 87.6897 109.768 88.6298 109.768 89.7787C109.768 90.8754 109.538 91.8024 109.078 92.5597C108.619 93.3039 107.987 93.8719 107.182 94.2636C106.392 94.6422 105.487 94.8315 104.466 94.8315ZM101.105 98.2C100.487 98.2 100.034 98.0956 99.7468 97.8867C99.4595 97.6908 99.3158 97.3318 99.3158 96.8095V92.736L102.57 92.7556V98.0238C102.426 98.0629 102.218 98.1021 101.945 98.1413C101.686 98.1805 101.406 98.2 101.105 98.2Z" fill="white"/>
</svg>
